<?xml version="1.0" standalone="no"?>
<!DOCTYPE svg PUBLIC "-//W3C//DTD SVG 20010904//EN"
 "http://www.w3.org/TR/2001/REC-SVG-20010904/DTD/svg10.dtd">
<svg version="1.0" xmlns="http://www.w3.org/2000/svg"
 width="1536.000000pt" height="1024.000000pt" viewBox="0 0 1536.000000 1024.000000"
 preserveAspectRatio="xMidYMid meet">

<g transform="translate(0.000000,1024.000000) scale(0.100000,-0.100000)"
fill="#000000" stroke="none">
<path d="M0 5120 l0 -5120 7680 0 7680 0 0 5120 0 5120 -7680 0 -7680 0 0
-5120z m5804 1368 c25 -28 28 -36 23 -81 -5 -59 -40 -97 -85 -96 l-27 0 25 11
c14 6 29 10 33 9 5 -1 6 3 2 9 -5 8 -11 8 -20 0 -10 -8 -15 -6 -19 8 -4 12
-16 20 -31 20 -14 0 -22 -4 -19 -9 3 -5 0 -9 -5 -9 -6 0 -11 -5 -11 -11 0 -5
3 -8 8 -6 4 3 13 -1 20 -9 21 -23 -12 -17 -39 7 -13 11 -17 17 -9 13 9 -4 12
-3 7 2 -5 5 -12 9 -15 10 -17 2 -56 23 -44 23 9 1 11 8 6 24 -10 31 -22 37
-84 37 -30 1 -73 5 -95 9 -29 6 -8 8 77 8 113 -2 118 -1 134 22 22 31 72 52
109 45 17 -3 43 -19 59 -36z m-473 -125 c-78 -2 -131 -8 -140 -16 -14 -11 -14
-10 -2 6 12 15 30 17 140 15 l126 -2 -124 -3z m-261 -7 c0 -2 -8 -10 -17 -17
-16 -13 -17 -12 -4 4 13 16 21 21 21 13z m100 -40 c0 -2 -8 -10 -17 -17 -16
-13 -17 -12 -4 4 13 16 21 21 21 13z m903 -36 c21 -24 27 -40 27 -76 0 -39 -5
-51 -34 -80 -28 -28 -41 -34 -77 -34 -36 0 -47 6 -80 40 l-38 40 -279 0 -279
0 -181 -192 c-99 -106 -220 -231 -267 -278 l-87 -85 83 110 c98 131 157 205
302 383 l109 132 302 0 303 0 13 24 c33 63 133 71 183 16z m-1043 26 c0 -2 -8
-10 -17 -17 -16 -13 -17 -12 -4 4 13 16 21 21 21 13z m-1376 -196 c21 -4 45
-15 53 -22 18 -19 203 -515 203 -546 0 -3 -12 6 -27 20 -45 41 -173 132 -233
166 -53 29 -167 68 -176 60 -2 -2 10 -37 27 -76 16 -40 27 -78 23 -84 -4 -7
-3 -8 5 -4 9 6 10 0 4 -21 -8 -34 -8 -30 1 -173 4 -63 9 -165 10 -225 3 -90 7
-119 25 -154 12 -24 21 -45 18 -47 -5 -5 -537 1092 -537 1106 0 13 550 13 604
0z m1140 -147 c-43 -82 -144 -278 -226 -438 -81 -159 -145 -277 -142 -262 l6
28 -133 -5 c-74 -3 -143 -7 -154 -10 -11 -2 -55 -5 -97 -5 -68 -1 -77 -3 -83
-22 -4 -11 -9 -19 -11 -16 -3 3 361 792 396 857 10 19 21 20 266 20 l255 0
-77 -147z m993 105 c29 -27 29 -57 2 -92 -25 -32 -66 -34 -102 -6 -19 15 -40
20 -90 20 l-64 0 -200 -267 c-110 -148 -223 -302 -251 -343 -33 -49 -172 -197
-399 -426 -191 -193 -345 -346 -341 -341 6 9 -12 71 -33 110 -7 14 22 80 133
300 l143 282 381 378 382 377 158 0 c119 1 165 4 184 15 36 21 70 18 97 -7z
m4103 -213 c0 -91 1 -165 3 -165 2 0 32 12 68 26 56 23 75 26 154 22 82 -3 94
-7 137 -36 154 -106 161 -481 12 -625 -70 -68 -198 -99 -314 -76 -36 7 -107
11 -157 10 l-93 -3 0 499 c0 275 3 503 7 506 3 4 46 7 95 7 l88 0 0 -165z
m-1420 -270 l0 -395 215 0 215 0 0 -90 0 -90 -317 2 -318 3 -3 440 c-2 242 0
459 3 483 l6 42 100 0 99 0 0 -395z m2444 138 l68 -16 -6 -66 c-4 -36 -8 -67
-10 -68 -1 -2 -27 1 -56 7 -66 13 -211 13 -243 1 -29 -11 -39 -34 -31 -66 7
-29 34 -39 148 -60 186 -34 240 -83 240 -220 0 -118 -52 -185 -170 -221 -65
-19 -241 -17 -324 4 l-65 17 3 65 c1 35 5 67 10 71 4 4 34 1 67 -6 75 -18 221
-19 255 -2 30 15 49 61 34 85 -17 27 -52 40 -152 56 -105 17 -176 47 -206 89
-16 22 -22 47 -24 110 -3 71 0 88 21 127 55 103 233 141 441 93z m-1515 6 c68
-14 128 -60 154 -117 21 -44 22 -65 25 -324 l3 -278 -49 0 c-35 0 -59 7 -83
23 l-34 23 -55 -25 c-64 -30 -198 -41 -262 -22 -44 14 -103 61 -123 101 -37
71 -27 182 22 240 51 61 92 74 252 78 l143 4 -4 49 c-6 59 -27 85 -82 100 -51
14 -188 0 -278 -27 -16 -5 -18 3 -18 70 l0 75 53 15 c28 8 61 17 72 19 41 9
216 7 264 -4z m-4171 -541 c149 -173 494 -583 514 -610 l19 -28 -320 0 -320 0
-143 193 c-80 105 -147 197 -151 204 -7 11 296 333 313 333 5 0 44 -42 88 -92z
m3652 -427 c17 -5 26 -15 28 -33 l3 -27 -73 6 c-65 5 -76 3 -100 -17 -24 -18
-28 -29 -28 -71 0 -75 22 -92 116 -87 l74 3 0 -26 c0 -32 -18 -39 -108 -39
-122 0 -168 48 -160 166 5 74 28 107 87 122 42 12 125 13 161 3z m598 -147
l-3 -139 -35 0 -35 0 -3 58 -3 57 -69 0 -69 0 -3 -57 -3 -58 -37 -3 -38 -3 0
145 0 146 34 0 35 0 3 -52 3 -53 73 -3 72 -3 0 55 c0 54 0 55 33 58 17 2 36 1
40 -3 4 -3 6 -68 5 -145z m-1608 121 c0 -24 -3 -25 -55 -25 l-54 0 -3 -117 -3
-118 -37 -3 -37 -3 -3 118 -3 118 -52 3 c-29 2 -53 7 -53 12 0 4 -3 15 -6 24
-5 14 12 16 150 16 l156 0 0 -25z m500 0 c0 -25 -1 -25 -85 -25 l-85 0 0 -30
0 -29 78 -3 c75 -3 77 -4 77 -28 0 -24 -2 -25 -77 -28 l-78 -3 0 -29 0 -30 85
0 85 0 0 -30 0 -31 -122 3 -123 3 -3 143 -3 142 126 0 125 0 0 -25z m-1010
-95 c0 -20 -7 -20 -275 -20 -177 0 -275 4 -275 10 0 6 -8 11 -17 12 -58 5 136
15 335 16 226 2 232 1 232 -18z m3030 10 c52 -3 82 -8 65 -9 -30 -3 -30 -3 -5
-11 14 -4 -140 -8 -342 -9 -362 -1 -368 -1 -368 19 0 20 6 20 278 19 152 -1
320 -5 372 -9z"/>
<path d="M5696 6438 c-14 -19 -14 -24 -1 -38 8 -9 13 -19 10 -22 -3 -3 6 -3
20 0 14 2 31 14 37 25 9 17 7 24 -12 39 -29 23 -36 23 -54 -4z"/>
<path d="M5946 6229 c-32 -47 32 -102 74 -64 22 20 26 55 8 73 -19 19 -65 14
-82 -9z"/>
<path d="M5715 6030 c-9 -15 4 -30 26 -30 12 0 19 7 19 20 0 21 -33 29 -45 10z"/>
<path d="M9994 5580 c-18 -4 -48 -17 -68 -29 l-36 -23 0 -178 c0 -207 -3 -201
99 -203 71 -2 128 25 156 73 17 30 20 53 20 155 0 160 -18 195 -105 207 -19 3
-49 2 -66 -2z"/>
<path d="M9235 5305 c-5 -2 -22 -6 -37 -9 -64 -14 -77 -111 -18 -141 40 -21
116 -18 168 5 l43 19 -3 63 -3 63 -70 2 c-38 1 -74 0 -80 -2z"/>
</g>
</svg>
